<?xml version="1.0" encoding="utf-8"?><!-- Uploaded to: SVG Repo, www.svgrepo.com, Generator: SVG Repo Mixer Tools -->
<svg fill="#000000" width="800px" height="800px" viewBox="0 0 24 24" id="done-playlist" data-name="Flat Color" xmlns="http://www.w3.org/2000/svg" class="icon flat-color"><path id="secondary" d="M19.09,7.75a1,1,0,0,1-.75-.34L17.25,6.16a1,1,0,0,1,1.5-1.32l.29.33,1.17-1.53a1,1,0,0,1,1.58,1.22l-1.91,2.5a1,1,0,0,1-.76.39ZM22,19a1,1,0,0,0-1-1H14a1,1,0,0,0,0,2h7A1,1,0,0,0,22,19Zm0-4a1,1,0,0,0-1-1H14a1,1,0,0,0,0,2h7A1,1,0,0,0,22,15Z" style="fill: rgb(44, 169, 188);"></path><path id="primary" d="M13.59,5.19a22.3,22.3,0,0,1-2.82-2.83A1,1,0,0,0,9,3V13.76a4.5,4.5,0,1,0,2,3.74V5.56a12.91,12.91,0,0,0,1.41,1.23,1.89,1.89,0,0,1,.69,2.76,1,1,0,0,0,1.8.88A3.86,3.86,0,0,0,13.59,5.19Z" style="fill: rgb(0, 0, 0);"></path></svg>